<?xml version="1.0" standalone="no"?>
<!DOCTYPE svg PUBLIC "-//W3C//DTD SVG 20010904//EN"
 "http://www.w3.org/TR/2001/REC-SVG-20010904/DTD/svg10.dtd">
<svg version="1.0" xmlns="http://www.w3.org/2000/svg"
 width="2357.000000pt" height="338.000000pt" viewBox="0 0 2357.000000 338.000000"
 preserveAspectRatio="xMidYMid meet">

<g transform="translate(0.000000,338.000000) scale(0.100000,-0.100000)"
fill="#000000" stroke="none">
<path d="M22575 3369 c-256 -21 -538 -69 -835 -140 -1016 -244 -2016 -661
-2870 -1197 -137 -86 -172 -111 -135 -98 11 4 103 32 205 61 478 139 868 219
1295 267 170 19 576 16 715 -5 639 -97 856 -378 671 -872 -56 -150 -216 -422
-358 -610 -24 -30 -31 -47 -21 -43 29 12 424 274 603 401 871 618 1478 1191
1655 1561 35 74 70 202 70 257 0 70 -37 163 -86 219 -79 87 -257 162 -450 190
-109 15 -336 20 -459 9z"/>
<path d="M2546 1889 c-88 -21 -233 -87 -311 -140 -27 -19 -277 -212 -555 -430
-278 -217 -767 -599 -1087 -848 -321 -249 -583 -455 -583 -457 0 -2 269 -4
599 -4 l599 0 588 481 589 480 3 -480 2 -481 483 0 482 1 376 337 c207 186
444 400 525 476 l149 139 3 -477 2 -476 508 2 507 3 3 948 2 947 -344 0 c-379
0 -428 -5 -560 -60 -40 -17 -105 -52 -144 -78 -39 -26 -274 -224 -524 -440
l-453 -394 -3 486 -2 486 -388 -1 c-348 0 -395 -2 -466 -20z"/>
<path d="M8470 960 l0 -950 895 0 895 0 0 243 0 244 -107 6 c-58 4 -234 7
-390 7 l-283 0 0 700 0 700 -505 0 -505 0 0 -950z"/>
<path d="M10570 1406 l0 -246 773 0 c748 0 773 -1 804 -20 36 -22 58 -58 68
-113 l7 -37 -660 0 c-395 0 -681 -4 -713 -10 -192 -35 -331 -126 -396 -258
-33 -66 -38 -85 -41 -167 -5 -115 11 -240 38 -298 51 -108 178 -191 355 -230
99 -22 108 -22 975 -22 1001 0 972 -2 1140 81 126 63 195 128 243 232 48 103
57 183 57 548 0 324 -1 332 -76 474 -41 79 -99 134 -212 199 -96 56 -134 68
-271 88 -99 14 -258 17 -1103 20 l-988 4 0 -245z m1630 -778 c0 -83 -22 -132
-66 -148 -15 -6 -172 -10 -374 -10 l-348 0 -26 31 c-32 38 -36 114 -8 148 37
46 73 50 460 51 l362 0 0 -72z"/>
<path d="M15816 1639 c-267 -39 -463 -166 -555 -360 -62 -129 -71 -190 -71
-487 0 -279 5 -312 58 -425 78 -166 220 -275 441 -335 l96 -27 1048 -3 1047
-3 0 246 0 245 -777 0 c-482 0 -792 4 -814 10 -56 16 -91 60 -97 121 l-5 52
579 -6 c734 -9 822 -2 992 78 178 84 262 242 250 470 -4 80 -10 105 -37 159
-74 150 -240 238 -501 266 -116 12 -1570 11 -1654 -1z m1173 -470 c40 -14 61
-54 61 -114 0 -38 -5 -52 -29 -76 l-29 -29 -401 0 -401 0 0 79 c0 84 17 122
64 141 32 13 697 12 735 -1z"/>
<path d="M13618 1611 c-74 -24 -112 -52 -145 -109 l-28 -47 -3 -728 -3 -727
506 0 505 0 2 563 3 562 313 3 312 2 0 250 0 250 -702 -1 c-650 0 -707 -1
-760 -18z"/>
<path d="M18210 815 l0 -815 500 0 500 0 0 551 0 551 208 -4 c203 -3 208 -4
267 -31 95 -45 154 -111 188 -211 15 -43 17 -103 17 -453 l0 -403 510 0 510 0
0 513 c0 287 -5 543 -10 582 -38 263 -254 430 -660 511 -76 16 -193 18 -1057
21 l-973 4 0 -816z"/>
<path d="M6280 1594 c-210 -30 -332 -85 -446 -198 -167 -167 -211 -312 -201
-659 6 -199 17 -256 70 -367 41 -86 138 -182 237 -236 100 -54 148 -72 255
-97 87 -20 120 -21 1068 -24 l977 -4 0 246 0 245 -637 0 c-351 0 -665 4 -698
9 -145 21 -186 47 -233 150 -23 49 -24 62 -20 170 5 130 17 167 70 221 64 66
40 64 816 68 l702 3 0 244 0 245 -932 -1 c-735 -1 -953 -4 -1028 -15z"/>
</g>
</svg>
